<?xml version="1.0" encoding="UTF-8"?>
<svg width="512" height="512" viewBox="0 0 512 512" fill="none" xmlns="http://www.w3.org/2000/svg">
  <rect width="512" height="512" rx="128" fill="#1a1a1a"/>
  <path d="M256 64C150 64 64 150 64 256s86 192 192 192s192-86 192-192S362 64 256 64zM176 384c-17.7 0-32-14.3-32-32s14.3-32 32-32s32 14.3 32 32s-14.3 32-32 32zm0-192c-17.7 0-32-14.3-32-32s14.3-32 32-32s32 14.3 32 32s-14.3 32-32 32zm80 96c-17.7 0-32-14.3-32-32s14.3-32 32-32s32 14.3 32 32s-14.3 32-32 32zm80 96c-17.7 0-32-14.3-32-32s14.3-32 32-32s32 14.3 32 32s-14.3 32-32 32zm0-192c-17.7 0-32-14.3-32-32s14.3-32 32-32s32 14.3 32 32s-14.3 32-32 32z" fill="#FFD700"/>
  <path d="M352 112c0-17.7-14.3-32-32-32s-32 14.3-32 32s14.3 32 32 32s32-14.3 32-32zM352 192c0-17.7-14.3-32-32-32s-32 14.3-32 32s14.3 32 32 32s32-14.3 32-32zM256 288c-17.7 0-32 14.3-32 32s14.3 32 32 32s32-14.3 32-32s-14.3-32-32-32zM176 192c-17.7 0-32 14.3-32 32s14.3 32 32 32s32-14.3 32-32s-14.3-32-32-32zM176 112c-17.7 0-32 14.3-32 32s14.3 32 32 32s32-14.3 32-32s-14.3-32-32-32z" fill="#FF4081"/>
</svg> 