<?xml version="1.0" encoding="UTF-8"?>
<svg width="512" height="512" viewBox="0 0 512 512" fill="none" xmlns="http://www.w3.org/2000/svg">
  <rect width="512" height="512" rx="128" fill="#1a1a1a"/>
  <path d="M352 128c0-35.3-28.7-64-64-64s-64 28.7-64 64c0 7.4 1.3 14.5 3.6 21.2c-9.3-3.9-19.5-6-30.3-6c-28.8 0-54.4 15.4-68.6 38.5c-5.6-1.7-11.6-2.5-17.8-2.5c-35.3 0-64 28.7-64 64s28.7 64 64 64c.6 0 1.1 0 1.7-.1c2.8 30.3 13.5 57.8 29.9 80.1L160 410.3l134.9-21.1c10.4 3.7 21.7 5.7 33.5 5.7c58.3 0 106-51.3 106-114.2c0-30.7-10.9-58.8-29.1-80.6c13.1-12.4 21.3-30 21.3-49.4c0-7.7-1.3-15.1-3.7-22z" fill="#FFD700" />
  <path d="M192.5 278.7c-1-9.6 1.1-20.3 6.4-31.4L196 240l-16.1-15.8C175.2 219.6 171 214 169 208c-2.4-7.7-2.3-15.9 0-23.8c2.4-8 7.3-15.3 13.9-20.7l16.1-13.2l-8.9-19c-3.6-7.6-5.3-15.6-5-23.4c.3-8.4 2.8-16.7 7.4-24.2c4.5-7.2 10.6-13.2 17.9-17.5l17.7-10.4l-4.3-19.8c-1.7-7.9-1.8-16.5 0-24.9c.8-3.6 2-7.2 3.6-10.6l-3.4-2.5C215.2 1.5 205.7 0 196.4 0c-43.1 0-67.8 37.1-64 79l5.4 60.4c-29.2 0-43.4 33.2-32.1 58.5l17.3 38.8c-28.9-.7-46.6 25.4-44.4 52.6l2.2 27.1c.4 5.1 3.8 9.6 8.7 11.2l36.7 11.9c4.1 1.3 8.3 2.7 12.5 4" fill="#FF4081" />
</svg> 